<svg width="37" height="37" viewBox="0 0 37 37" fill="none" xmlns="http://www.w3.org/2000/svg">
<path d="M4.625 12.3329L16.7888 20.4421C17.2954 20.7801 17.8909 20.9605 18.5 20.9605C19.1091 20.9605 19.7046 20.7801 20.2112 20.4421L32.375 12.3329H4.625ZM7.70833 29.2912H29.2917C30.1094 29.2912 30.8937 28.9664 31.4719 28.3881C32.0501 27.8099 32.375 27.0256 32.375 26.2079V10.7912C32.375 9.97347 32.0501 9.18921 31.4719 8.61097C30.8937 8.03274 30.1094 7.70789 29.2917 7.70789H7.70833C6.89058 7.70789 6.10632 8.03274 5.52809 8.61097C4.94985 9.18921 4.625 9.97347 4.625 10.7912V26.2079C4.625 27.0256 4.94985 27.8099 5.52809 28.3881C6.10632 28.9664 6.89058 29.2912 7.70833 29.2912Z" stroke="white" stroke-width="2" stroke-linecap="round" stroke-linejoin="round"/>
</svg>
