<svg width="33" height="33" viewBox="0 0 33 33" fill="none" xmlns="http://www.w3.org/2000/svg">
<path d="M9.75 0C4.37436 0 0 4.37436 0 9.75V23.25C0 28.6256 4.37436 33 9.75 33H23.25C28.6256 33 33 28.6256 33 23.25V9.75C33 4.37436 28.6256 0 23.25 0H9.75ZM9.75 1.5H23.25C27.8149 1.5 31.5 5.18514 31.5 9.75V23.25C31.5 27.8149 27.8149 31.5 23.25 31.5H9.75C5.18514 31.5 1.5 27.8149 1.5 23.25V9.75C1.5 5.18514 5.18514 1.5 9.75 1.5ZM25.5 6C25.1022 6 24.7206 6.15804 24.4393 6.43934C24.158 6.72064 24 7.10218 24 7.5C24 7.89782 24.158 8.27936 24.4393 8.56066C24.7206 8.84196 25.1022 9 25.5 9C25.8978 9 26.2794 8.84196 26.5607 8.56066C26.842 8.27936 27 7.89782 27 7.5C27 7.10218 26.842 6.72064 26.5607 6.43934C26.2794 6.15804 25.8978 6 25.5 6ZM16.5 8.25C11.9525 8.25 8.25 11.9525 8.25 16.5C8.25 21.0475 11.9525 24.75 16.5 24.75C21.0475 24.75 24.75 21.0475 24.75 16.5C24.75 11.9525 21.0475 8.25 16.5 8.25ZM16.5 9.75C20.2368 9.75 23.25 12.7632 23.25 16.5C23.25 20.2368 20.2368 23.25 16.5 23.25C12.7632 23.25 9.75 20.2368 9.75 16.5C9.75 12.7632 12.7632 9.75 16.5 9.75Z" fill="white"/>
</svg>
