<svg width="39" height="39" viewBox="0 0 39 39" fill="none" xmlns="http://www.w3.org/2000/svg">
<path d="M4.875 8.12451C4.875 7.26256 5.21741 6.43591 5.8269 5.82641C6.4364 5.21692 7.26305 4.87451 8.125 4.87451H13.455C13.7959 4.87477 14.1281 4.98224 14.4046 5.18172C14.681 5.38119 14.8878 5.66257 14.9955 5.98601L17.4297 13.2871C17.5531 13.6582 17.5385 14.0613 17.3887 14.4224C17.2388 14.7836 16.9638 15.0786 16.614 15.2534L12.9464 17.0896C14.7441 21.0685 17.931 24.2554 21.9099 26.0531L23.7461 22.3855C23.9209 22.0357 24.2159 21.7607 24.5771 21.6108C24.9382 21.461 25.3413 21.4464 25.7124 21.5698L33.0135 24.004C33.3372 24.1118 33.6188 24.3188 33.8183 24.5956C34.0178 24.8724 34.1251 25.2049 34.125 25.5461V30.8745C34.125 31.7365 33.7826 32.5631 33.1731 33.1726C32.5636 33.7821 31.737 34.1245 30.875 34.1245H29.25C15.7885 34.1245 4.875 23.211 4.875 9.74951V8.12451Z" stroke="white" stroke-width="2" stroke-linecap="round" stroke-linejoin="round"/>
</svg>
