<svg width="27" height="33" viewBox="0 0 27 33" fill="none" xmlns="http://www.w3.org/2000/svg">
<path d="M22.2206 23.7612L15.6793 30.8328C15.3932 31.1424 15.0535 31.388 14.6796 31.5556C14.3057 31.7231 13.9049 31.8093 13.5001 31.8093C13.0954 31.8093 12.6946 31.7231 12.3207 31.5556C11.9467 31.388 11.607 31.1424 11.321 30.8328L4.77815 23.7612C3.05336 21.8965 1.87879 19.5207 1.40296 16.9343C0.927123 14.3479 1.1714 11.667 2.1049 9.23073C3.0384 6.79442 4.6192 4.71208 6.64739 3.24702C8.67558 1.78197 11.0601 1 13.4994 1C15.9386 1 18.3231 1.78197 20.3513 3.24702C22.3795 4.71208 23.9603 6.79442 24.8938 9.23073C25.8273 11.667 26.0716 14.3479 25.5958 16.9343C25.1199 19.5207 23.9453 21.8965 22.2206 23.7612V23.7612Z" stroke="white" stroke-width="2" stroke-linecap="round" stroke-linejoin="round"/>
<path d="M18.125 14.3328C18.125 15.6588 17.6377 16.9306 16.7704 17.8683C15.903 18.806 14.7266 19.3328 13.5 19.3328C12.2734 19.3328 11.097 18.806 10.2296 17.8683C9.36227 16.9306 8.875 15.6588 8.875 14.3328C8.875 13.0067 9.36227 11.7349 10.2296 10.7972C11.097 9.85955 12.2734 9.33276 13.5 9.33276C14.7266 9.33276 15.903 9.85955 16.7704 10.7972C17.6377 11.7349 18.125 13.0067 18.125 14.3328V14.3328Z" stroke="white" stroke-width="2" stroke-linecap="round" stroke-linejoin="round"/>
</svg>
