<svg width="202" height="62" viewBox="0 0 202 62" fill="none" xmlns="http://www.w3.org/2000/svg">
<g clip-path="url(#clip0_439_907)">
<path d="M72.5394 56.5581H0V62H72.5394V56.5581Z" fill="white"/>
<path d="M54.9858 22.1049C53.1406 21.1381 51.2703 20.1753 49.3749 19.2165C47.4449 18.2401 44.197 16.4453 42.293 15.5192C46.0775 17.4336 51.2012 20.1929 54.9858 22.1049Z" fill="white" stroke="white" stroke-width="1.4" stroke-miterlimit="3"/>
<path d="M30.6322 53.4615L17.5816 45.6337V7.67702L30.7993 15.4737L43.4285 8.58878L30.4368 0.193848L17.4922 7.54061" stroke="white"/>
<path d="M30.5723 53.6649L55.0494 38.7009V21.911L43.5663 28.48V8.40686L30.5723 15.342V53.6649Z" fill="white"/>
<path d="M86.1695 23.6054C88.3916 23.5982 90.576 24.1894 92.5006 25.3189C94.4294 26.412 96.029 28.0186 97.1277 29.9662C98.2259 31.8907 98.7995 34.0782 98.7893 36.3031C98.7988 38.5515 98.2214 40.7621 97.1159 42.7094C96.0378 44.6572 94.4576 46.2689 92.5453 47.3711C90.6102 48.4915 88.4173 49.0696 86.1906 49.0463C84.562 49.0714 82.9457 48.7555 81.4423 48.1182C79.9389 47.4809 78.5806 46.5358 77.4518 45.3418C75.0402 42.8753 73.8336 39.8768 73.832 36.3462C73.832 32.5651 75.1955 29.4142 77.9225 26.8935C80.3138 24.703 83.0627 23.607 86.1695 23.6054ZM86.2683 29.3201C85.403 29.298 84.5429 29.4621 83.7443 29.8015C82.9457 30.1409 82.2266 30.648 81.6341 31.2896C80.3993 32.601 79.7819 34.2802 79.7819 36.327C79.7819 38.433 80.3914 40.1376 81.6106 41.4411C82.8297 42.7445 84.3745 43.397 86.2448 43.3986C87.1159 43.4212 87.9818 43.2566 88.7861 42.9155C89.5903 42.5745 90.3147 42.0647 90.9119 41.4195C92.1515 40.1017 92.772 38.4042 92.7736 36.327C92.7751 34.2498 92.1656 32.5635 90.9449 31.2681C89.7257 29.9678 88.1669 29.3185 86.2683 29.3201V29.3201Z" fill="white"/>
<path d="M118.551 24.2275V26.8958C119.553 25.8541 120.742 25.0167 122.053 24.4285C123.324 23.8763 124.694 23.5961 126.076 23.6053C129.182 23.6053 131.822 24.8019 133.995 27.1949C136.169 29.588 137.257 32.644 137.262 36.3628C137.262 39.9668 136.14 42.9805 133.894 45.4039C131.649 47.8273 128.985 49.0414 125.901 49.0462C124.59 49.0576 123.289 48.8038 122.075 48.2996C120.76 47.7162 119.564 46.8911 118.544 45.8658V57.2736H112.625V24.2275H118.551ZM124.831 29.2099C123.959 29.1851 123.092 29.3465 122.286 29.6837C121.479 30.0209 120.752 30.5264 120.149 31.1675C118.91 32.4725 118.29 34.1772 118.29 36.2815C118.29 38.4321 118.91 40.1702 120.149 41.496C120.746 42.1461 121.473 42.6597 122.28 43.003C123.087 43.3462 123.956 43.5112 124.831 43.4871C125.696 43.5026 126.554 43.3301 127.348 42.9809C128.142 42.6317 128.853 42.114 129.434 41.4625C130.682 40.116 131.309 38.3962 131.317 36.303C131.325 34.2099 130.712 32.5092 129.479 31.201C128.889 30.5503 128.169 30.0358 127.367 29.6924C126.565 29.3489 125.7 29.1844 124.831 29.2099V29.2099Z" fill="white"/>
<path d="M151.134 24.2275H157.171V35.8842C157.171 38.1529 157.328 39.7283 157.642 40.6106C157.909 41.4372 158.426 42.1567 159.12 42.6662C159.86 43.1741 160.739 43.4312 161.631 43.4009C162.527 43.4302 163.411 43.1796 164.163 42.683C164.888 42.1609 165.43 41.4172 165.71 40.5603C165.956 39.8616 166.08 38.3715 166.082 36.09V24.2275H172.053V34.4795C172.053 38.7057 171.725 41.5973 171.069 43.1544C170.355 44.9448 169.119 46.4698 167.527 47.5242C165.961 48.5389 163.974 49.0462 161.567 49.0462C158.958 49.0462 156.847 48.4527 155.234 47.2658C153.621 46.0788 152.487 44.426 151.833 42.3073C151.362 40.8379 151.127 38.1688 151.127 34.3L151.134 24.2275Z" fill="white"/>
<path d="M201.564 27.609L197.867 31.3661C196.365 29.8537 195.002 29.0975 193.776 29.0975C193.219 29.0649 192.666 29.2178 192.202 29.533C192.026 29.6519 191.881 29.8133 191.781 30.003C191.681 30.1926 191.629 30.4044 191.63 30.6195C191.634 30.9557 191.762 31.278 191.99 31.5217C192.23 31.7945 192.824 32.1686 193.772 32.644L195.96 33.7568C198.265 34.9119 199.847 36.0901 200.705 37.2914C201.7 38.7497 202.143 40.5242 201.953 42.2882C201.763 44.0523 200.953 45.6873 199.672 46.8925C198.119 48.3283 196.037 49.0462 193.428 49.0462C189.957 49.0462 187.186 47.667 185.115 44.9086L188.789 40.8404C189.478 41.6622 190.314 42.3449 191.251 42.8529C192.192 43.3651 193.027 43.6211 193.755 43.6211C194.436 43.6555 195.109 43.4511 195.659 43.042C195.874 42.8933 196.052 42.6951 196.177 42.4634C196.302 42.2317 196.371 41.9732 196.379 41.709C196.379 40.7741 195.512 39.8624 193.776 38.9738L191.764 37.9495C187.909 35.9776 185.981 33.5095 185.981 30.5453C185.981 28.6308 186.707 26.9956 188.158 25.6395C189.61 24.2834 191.465 23.6054 193.725 23.6054C195.248 23.5969 196.752 23.9552 198.113 24.6511C199.474 25.347 200.653 26.3606 201.555 27.609H201.564Z" fill="white"/>
</g>
<defs>
<clipPath id="clip0_439_907">
<rect width="202" height="62" fill="white"/>
</clipPath>
</defs>
</svg>
