<svg width="58" height="58" viewBox="0 0 58 58" fill="none" xmlns="http://www.w3.org/2000/svg">
<path d="M18.56 3.47998C10.2457 3.47998 3.47998 10.2457 3.47998 18.56V39.44C3.47998 47.7543 10.2457 54.52 18.56 54.52H39.44C47.7543 54.52 54.52 47.7543 54.52 39.44V18.56C54.52 10.2457 47.7543 3.47998 39.44 3.47998H18.56ZM18.56 5.79998H39.44C46.5003 5.79998 52.2 11.4997 52.2 18.56V39.44C52.2 46.5003 46.5003 52.2 39.44 52.2H18.56C11.4997 52.2 5.79998 46.5003 5.79998 39.44V18.56C5.79998 11.4997 11.4997 5.79998 18.56 5.79998ZM42.92 12.76C42.3047 12.76 41.7146 13.0044 41.2795 13.4395C40.8444 13.8746 40.6 14.4647 40.6 15.08C40.6 15.6953 40.8444 16.2854 41.2795 16.7205C41.7146 17.1556 42.3047 17.4 42.92 17.4C43.5353 17.4 44.1254 17.1556 44.5605 16.7205C44.9956 16.2854 45.24 15.6953 45.24 15.08C45.24 14.4647 44.9956 13.8746 44.5605 13.4395C44.1254 13.0044 43.5353 12.76 42.92 12.76ZM29 16.24C21.9666 16.24 16.24 21.9666 16.24 29C16.24 36.0334 21.9666 41.76 29 41.76C36.0334 41.76 41.76 36.0334 41.76 29C41.76 21.9666 36.0334 16.24 29 16.24ZM29 18.56C34.7796 18.56 39.44 23.2204 39.44 29C39.44 34.7796 34.7796 39.44 29 39.44C23.2204 39.44 18.56 34.7796 18.56 29C18.56 23.2204 23.2204 18.56 29 18.56Z" fill="white"/>
</svg>
