<svg width="68" height="68" viewBox="0 0 68 68" fill="none" xmlns="http://www.w3.org/2000/svg">
<path d="M45.3334 56.6666H53.8334C54.5848 56.6666 55.3055 56.3681 55.8368 55.8367C56.3682 55.3054 56.6667 54.5847 56.6667 53.8333V14.1666C56.6667 13.4151 56.3682 12.6945 55.8368 12.1631C55.3055 11.6318 54.5848 11.3333 53.8334 11.3333H45.3334V56.6666Z" stroke="white" stroke-width="2.75" stroke-linecap="round" stroke-linejoin="round"/>
<path d="M14.1667 56.6666H22.6667V11.3333H14.1667C13.4153 11.3333 12.6946 11.6318 12.1632 12.1631C11.6319 12.6945 11.3334 13.4151 11.3334 14.1666V53.8333C11.3334 54.5847 11.6319 55.3054 12.1632 55.8367C12.6946 56.3681 13.4153 56.6666 14.1667 56.6666Z" stroke="white" stroke-width="2.75" stroke-linecap="round" stroke-linejoin="round"/>
<path d="M45.3333 11.3333L34 22.6666L22.6666 11.3333" stroke="white" stroke-width="2.75" stroke-linecap="round" stroke-linejoin="round"/>
<path d="M11.3334 18.4167L34 39.6667L56.6667 18.4167" stroke="white" stroke-width="2.75" stroke-linecap="round" stroke-linejoin="round"/>
</svg>
