<svg width="64" height="64" viewBox="0 0 64 64" fill="none" xmlns="http://www.w3.org/2000/svg">
<path d="M32 37.3333C36.4183 37.3333 40 33.7515 40 29.3333C40 24.915 36.4183 21.3333 32 21.3333C27.5817 21.3333 24 24.915 24 29.3333C24 33.7515 27.5817 37.3333 32 37.3333Z" stroke="white" stroke-width="2.75" stroke-linecap="round" stroke-linejoin="round"/>
<path d="M47.0853 44.4186L35.7706 55.7333C34.7706 56.7323 33.4149 57.2935 32.0013 57.2935C30.5877 57.2935 29.232 56.7323 28.232 55.7333L16.9146 44.4186C13.9312 41.4351 11.8995 37.6338 11.0765 33.4956C10.2534 29.3574 10.6759 25.068 12.2906 21.1699C13.9053 17.2718 16.6397 13.9401 20.1479 11.596C23.6561 9.25188 27.7807 8.00073 32 8.00073C36.2193 8.00073 40.3438 9.25188 43.852 11.596C47.3602 13.9401 50.0946 17.2718 51.7093 21.1699C53.324 25.068 53.7465 29.3574 52.9235 33.4956C52.1004 37.6338 50.0687 41.4351 47.0853 44.4186V44.4186Z" stroke="white" stroke-width="2.75" stroke-linecap="round" stroke-linejoin="round"/>
</svg>
