<svg width="32" height="32" viewBox="0 0 32 32" fill="none" xmlns="http://www.w3.org/2000/svg">
<path d="M21.3334 12C25.0153 12 28 10.2091 28 8C28 5.79086 25.0153 4 21.3334 4C17.6515 4 14.6667 5.79086 14.6667 8C14.6667 10.2091 17.6515 12 21.3334 12Z" stroke="white" stroke-width="1.4" stroke-linecap="round" stroke-linejoin="round"/>
<path d="M14.6667 8V13.3333C14.6667 15.5427 17.652 17.3333 21.3334 17.3333C25.0147 17.3333 28 15.5427 28 13.3333V8" stroke="white" stroke-width="1.4" stroke-linecap="round" stroke-linejoin="round"/>
<path d="M14.6667 13.333V18.6663C14.6667 20.8757 17.652 22.6663 21.3334 22.6663C25.0147 22.6663 28 20.8757 28 18.6663V13.333" stroke="white" stroke-width="1.4" stroke-linecap="round" stroke-linejoin="round"/>
<path d="M14.6667 18.667V24.0003C14.6667 26.2097 17.652 28.0003 21.3334 28.0003C25.0147 28.0003 28 26.2097 28 24.0003V18.667" stroke="white" stroke-width="1.4" stroke-linecap="round" stroke-linejoin="round"/>
<path d="M9.33333 12H6C5.46957 12 4.96086 12.2107 4.58579 12.5858C4.21071 12.9609 4 13.4696 4 14C4 14.5304 4.21071 15.0391 4.58579 15.4142C4.96086 15.7893 5.46957 16 6 16H7.33333C7.86377 16 8.37247 16.2107 8.74755 16.5858C9.12262 16.9609 9.33333 17.4696 9.33333 18C9.33333 18.5304 9.12262 19.0391 8.74755 19.4142C8.37247 19.7893 7.86377 20 7.33333 20H4" stroke="white" stroke-width="1.4" stroke-linecap="round" stroke-linejoin="round"/>
<path d="M6.66669 10.667V12.0003M6.66669 20.0003V21.3337V20.0003Z" stroke="white" stroke-width="1.4" stroke-linecap="round" stroke-linejoin="round"/>
</svg>
