<svg width="28" height="28" viewBox="0 0 28 28" fill="none" xmlns="http://www.w3.org/2000/svg">
<path d="M10.5001 4.66699H5.83341C5.18908 4.66699 4.66675 5.18933 4.66675 5.83366V10.5003C4.66675 11.1447 5.18908 11.667 5.83341 11.667H10.5001C11.1444 11.667 11.6667 11.1447 11.6667 10.5003V5.83366C11.6667 5.18933 11.1444 4.66699 10.5001 4.66699Z" stroke="white" stroke-width="1.4" stroke-linecap="round" stroke-linejoin="round"/>
<path d="M10.5001 16.333H5.83341C5.18908 16.333 4.66675 16.8553 4.66675 17.4997V22.1663C4.66675 22.8107 5.18908 23.333 5.83341 23.333H10.5001C11.1444 23.333 11.6667 22.8107 11.6667 22.1663V17.4997C11.6667 16.8553 11.1444 16.333 10.5001 16.333Z" stroke="white" stroke-width="1.4" stroke-linecap="round" stroke-linejoin="round"/>
<path d="M22.1666 16.333H17.4999C16.8556 16.333 16.3333 16.8553 16.3333 17.4997V22.1663C16.3333 22.8107 16.8556 23.333 17.4999 23.333H22.1666C22.8109 23.333 23.3333 22.8107 23.3333 22.1663V17.4997C23.3333 16.8553 22.8109 16.333 22.1666 16.333Z" stroke="white" stroke-width="1.4" stroke-linecap="round" stroke-linejoin="round"/>
<path d="M16.3333 8.16699H23.3333" stroke="white" stroke-width="1.4" stroke-linecap="round" stroke-linejoin="round"/>
<path d="M19.8333 4.66699V11.667" stroke="white" stroke-width="1.4" stroke-linecap="round" stroke-linejoin="round"/>
</svg>
