<svg width="44" height="44" viewBox="0 0 44 44" fill="none" xmlns="http://www.w3.org/2000/svg">
<path d="M22 25.667C25.0376 25.667 27.5 23.2046 27.5 20.167C27.5 17.1294 25.0376 14.667 22 14.667C18.9624 14.667 16.5 17.1294 16.5 20.167C16.5 23.2046 18.9624 25.667 22 25.667Z" stroke="#F83C4A" stroke-width="2.75" stroke-linecap="round" stroke-linejoin="round"/>
<path d="M32.3712 30.5383L24.5924 38.3171C23.9049 39.0039 22.9728 39.3897 22.001 39.3897C21.0291 39.3897 20.0971 39.0039 19.4095 38.3171L11.6289 30.5383C9.57779 28.4871 8.181 25.8737 7.61514 23.0287C7.04929 20.1837 7.33978 17.2347 8.44989 14.5548C9.55999 11.8748 11.4399 9.58426 13.8518 7.9727C16.2637 6.36114 19.0993 5.50098 22 5.50098C24.9008 5.50098 27.7364 6.36114 30.1483 7.9727C32.5602 9.58426 34.4401 11.8748 35.5502 14.5548C36.6603 17.2347 36.9508 20.1837 36.385 23.0287C35.8191 25.8737 34.4223 28.4871 32.3712 30.5383V30.5383Z" stroke="#F83C4A" stroke-width="2.75" stroke-linecap="round" stroke-linejoin="round"/>
</svg>
