<svg width="177" height="54" viewBox="0 0 177 54" fill="none" xmlns="http://www.w3.org/2000/svg">
<g clip-path="url(#clip0_1022_707)">
<path d="M63.5618 49.2607H0V54.0005H63.5618V49.2607Z" fill="white"/>
<path d="M48.1806 19.2526C46.5638 18.4106 44.925 17.572 43.2641 16.7369C41.573 15.8865 38.7271 14.3233 37.0587 13.5166C40.3748 15.1841 44.8644 17.5872 48.1806 19.2526Z" fill="white" stroke="white" stroke-width="1.4" stroke-miterlimit="3"/>
<path d="M26.8411 46.5634L15.4057 39.7456V6.68655L26.9875 13.4772L38.0537 7.48067L26.6699 0.168945L15.3273 6.56774" stroke="white"/>
<path d="M26.7886 46.7405L48.2363 33.7074V19.084L38.1744 24.8054V7.32227L26.7886 13.3626V46.7405Z" fill="white"/>
<path d="M75.5049 20.5596C77.452 20.5534 79.3661 21.0682 81.0525 22.0519C82.7426 23.0041 84.1442 24.4034 85.1069 26.0997C86.0692 27.7759 86.5718 29.681 86.5629 31.6189C86.5712 33.5771 86.0652 35.5026 85.0966 37.1986C84.1519 38.895 82.7673 40.2988 81.0916 41.2588C79.396 42.2346 77.4745 42.7381 75.5234 42.7177C74.0964 42.7397 72.6801 42.4645 71.3628 41.9094C70.0454 41.3543 68.8552 40.5313 67.8661 39.4912C65.753 37.3431 64.6957 34.7314 64.6943 31.6564C64.6943 28.3632 65.8891 25.6189 68.2786 23.4235C70.3739 21.5156 72.7826 20.561 75.5049 20.5596ZM75.5915 25.5369C74.8333 25.5177 74.0796 25.6605 73.3799 25.9561C72.6801 26.2517 72.05 26.6934 71.5308 27.2523C70.4489 28.3945 69.9079 29.8569 69.9079 31.6397C69.9079 33.4739 70.4419 34.9586 71.5102 36.0939C72.5785 37.2292 73.9321 37.7975 75.5709 37.7989C76.3342 37.8185 77.0929 37.6751 77.7977 37.3781C78.5024 37.0811 79.1371 36.6371 79.6604 36.0751C80.7466 34.9274 81.2903 33.4489 81.2917 31.6397C81.293 29.8306 80.7589 28.3618 79.6893 27.2335C78.621 26.1011 77.2551 25.5356 75.5915 25.5369Z" fill="white"/>
<path d="M103.879 21.1017V23.4257C104.757 22.5184 105.799 21.789 106.947 21.2767C108.061 20.7958 109.262 20.5517 110.473 20.5598C113.194 20.5598 115.507 21.6019 117.411 23.6862C119.316 25.7705 120.27 28.4322 120.274 31.6711C120.274 34.8101 119.291 37.4349 117.323 39.5456C115.356 41.6563 113.022 42.7138 110.319 42.7179C109.17 42.7278 108.03 42.5068 106.967 42.0676C105.814 41.5596 104.766 40.8409 103.873 39.9479V49.8838H98.6863V21.1017H103.879ZM109.382 25.4412C108.618 25.4196 107.858 25.5602 107.152 25.8539C106.444 26.1475 105.807 26.5877 105.279 27.1461C104.193 28.2827 103.65 29.7675 103.65 31.6002C103.65 33.4733 104.193 34.9873 105.279 36.142C105.802 36.7081 106.439 37.1555 107.146 37.4544C107.853 37.7534 108.615 37.8972 109.382 37.8761C110.14 37.8897 110.891 37.7393 111.587 37.4352C112.283 37.1311 112.906 36.6802 113.415 36.1128C114.509 34.9401 115.058 33.4421 115.065 31.6191C115.072 29.7959 114.535 28.3147 113.454 27.1753C112.937 26.6085 112.307 26.1605 111.604 25.8613C110.901 25.5622 110.143 25.4189 109.382 25.4412Z" fill="white"/>
<path d="M132.429 21.1016H137.719V31.2542C137.719 33.2301 137.857 34.6023 138.132 35.3706C138.366 36.0906 138.819 36.7173 139.427 37.1611C140.075 37.6034 140.846 37.8273 141.627 37.801C142.412 37.8264 143.187 37.6082 143.846 37.1756C144.481 36.7209 144.956 36.0732 145.201 35.3269C145.417 34.7183 145.526 33.4204 145.527 31.4334V21.1016H150.759V30.0306C150.759 33.7115 150.472 36.2301 149.897 37.5863C149.272 39.1456 148.188 40.4738 146.794 41.3922C145.421 42.2759 143.68 42.7178 141.571 42.7178C139.285 42.7178 137.435 42.2009 136.022 41.1671C134.609 40.1333 133.615 38.6937 133.042 36.8484C132.629 35.5687 132.423 33.244 132.423 29.8744L132.429 21.1016Z" fill="white"/>
<path d="M176.618 24.0467L173.378 27.319C172.062 26.0018 170.868 25.3431 169.794 25.3431C169.306 25.3147 168.821 25.4479 168.415 25.7224C168.26 25.826 168.133 25.9666 168.046 26.1318C167.958 26.2969 167.913 26.4814 167.913 26.6688C167.917 26.9616 168.029 27.2423 168.229 27.4545C168.439 27.6921 168.96 28.018 169.79 28.432L171.708 29.4012C173.727 30.4073 175.113 31.4335 175.865 32.4798C176.737 33.7499 177.125 35.2954 176.959 36.8318C176.792 38.3683 176.083 39.7923 174.96 40.842C173.599 42.0925 171.775 42.7178 169.489 42.7178C166.447 42.7178 164.019 41.5166 162.205 39.1141L165.424 35.5708C166.028 36.2866 166.76 36.8812 167.581 37.3237C168.406 37.7698 169.138 37.9927 169.775 37.9927C170.372 38.0227 170.962 37.8447 171.444 37.4883C171.632 37.3588 171.788 37.1862 171.898 36.9844C172.007 36.7826 172.068 36.5575 172.075 36.3273C172.075 35.5132 171.315 34.719 169.794 33.9451L168.031 33.0529C164.653 31.3355 162.964 29.1859 162.964 26.6041C162.964 24.9367 163.6 23.5125 164.871 22.3313C166.143 21.1502 167.769 20.5597 169.749 20.5597C171.084 20.5523 172.401 20.8644 173.594 21.4705C174.787 22.0766 175.82 22.9594 176.61 24.0467H176.618Z" fill="white"/>
</g>
<defs>
<clipPath id="clip0_1022_707">
<rect width="177" height="54" fill="white"/>
</clipPath>
</defs>
</svg>
