<svg width="95" height="95" viewBox="0 0 95 95" fill="none" xmlns="http://www.w3.org/2000/svg">
<path d="M35.7837 31.4939L33.7398 30.1978C32.5241 29.6522 31.8022 29.8803 31.5093 30.0112C29.8659 30.75 29.4356 33.9136 30.5801 35.9588C31.626 37.8238 34.0172 38.8191 36.5276 38.3746L35.7837 31.4939Z" fill="#DE8766"/>
<path d="M34.3905 33.4497C34.3051 33.1699 34.1794 32.904 34.0172 32.6604C33.6963 32.184 33.2146 31.839 32.6603 31.6884C32.3776 31.6134 32.0854 31.5807 31.7932 31.5912C32.0856 31.5072 32.3935 31.4921 32.6927 31.5471C32.9967 31.6008 33.285 31.7217 33.5364 31.9009C33.6614 31.9919 33.7769 32.0952 33.8811 32.2094C33.9803 32.3254 34.0672 32.4513 34.1403 32.5853C34.2895 32.8502 34.3752 33.1461 34.3905 33.4497Z" fill="#D2664F"/>
<path d="M60.458 31.0938L62.5031 29.7978C63.7175 29.2534 64.4394 29.4802 64.7336 29.6124C66.3757 30.3499 66.8073 33.5135 65.6629 35.56C64.617 37.425 62.2258 38.4191 59.7153 37.9758L60.458 31.0938Z" fill="#DE8766"/>
<path d="M40.8513 46.0547C41.6456 49.1641 41.6178 52.4266 40.7705 55.522C39.9232 58.6175 38.2856 61.4393 36.0183 63.7107C39.6954 65.6986 43.8037 66.7549 47.9837 66.7872C52.1636 66.8195 56.2877 65.8268 59.9951 63.896C57.7691 61.5588 56.1613 58.7032 55.3174 55.5879C54.4735 52.4725 54.4202 49.1959 55.1622 46.0547H40.8513Z" fill="#E5876B"/>
<path d="M37.1341 19.6634C38.0064 18.8534 42.1019 15.2322 48.3773 15.2957C54.0967 15.3541 57.8877 18.4335 58.8753 19.2915C59.7436 23.4388 60.6111 27.5896 61.4777 31.7438C61.654 33.8538 61.7369 38.434 59.1552 43.1736C58.1344 45.0468 56.816 46.7417 55.2515 48.1919C54.6644 48.7311 52.119 50.9408 48.1894 50.9797C44.3012 51.0173 41.7364 48.906 41.1272 48.3773C39.4861 46.9523 38.1028 45.2551 37.0382 43.3603C34.1584 38.2137 34.5381 33.1293 34.8077 31.0932C35.5845 27.2829 36.36 23.4729 37.1341 19.6634Z" fill="#EDB896"/>
<path d="M79.043 82.947C76.3213 85.2954 63.9778 95.4124 45.7502 94.6114C30.4893 93.9413 20.2869 86.0212 17.1077 83.3358C18.195 78.7504 20.1028 75.9276 21.6153 74.2117C23.689 71.8607 25.5151 71.0104 31.0933 66.9642C33.7191 65.059 35.8096 63.4299 37.1614 62.3555C40.3314 64.5107 44.0761 65.6631 47.9094 65.6631C51.7427 65.6631 55.4875 64.5107 58.6575 62.3555C60.0741 63.3521 62.394 64.9761 65.2907 66.9642C71.9251 71.5159 73.6813 72.5502 75.5126 74.9556C76.7036 76.5199 78.2291 79.0589 79.043 82.947Z" fill="#003153"/>
<path d="M42.4311 32.581C43.1498 32.581 43.7323 31.9984 43.7323 31.2797C43.7323 30.5611 43.1498 29.9785 42.4311 29.9785C41.7125 29.9785 41.1299 30.5611 41.1299 31.2797C41.1299 31.9984 41.7125 32.581 42.4311 32.581Z" fill="black"/>
<path d="M53.8325 32.3417C54.5511 32.3417 55.1337 31.7591 55.1337 31.0405C55.1337 30.3218 54.5511 29.7393 53.8325 29.7393C53.1138 29.7393 52.5312 30.3218 52.5312 31.0405C52.5312 31.7591 53.1138 32.3417 53.8325 32.3417Z" fill="black"/>
<path d="M43.6392 39.5498C44.2275 40.1222 44.9124 40.586 45.6623 40.9197C46.0305 41.0829 46.415 41.2067 46.8093 41.2891C47.2013 41.3745 47.6018 41.4149 48.0029 41.4096C48.807 41.4087 49.6018 41.2387 50.3358 40.9107C50.7085 40.7462 51.0655 40.5484 51.4025 40.3197C51.7463 40.092 52.0694 39.8343 52.368 39.5498C52.1223 39.8894 51.8349 40.1968 51.5126 40.4648C51.1902 40.7387 50.8381 40.9757 50.4628 41.1712C50.3695 41.2243 50.271 41.2645 50.1751 41.3111L50.03 41.3759L49.8796 41.4317C49.7798 41.4667 49.6813 41.5094 49.5789 41.5392L49.2705 41.6261C48.854 41.7285 48.4267 41.7803 47.9978 41.7803C47.1404 41.7834 46.2951 41.5775 45.5353 41.1802C44.7832 40.7943 44.1334 40.2355 43.6392 39.5498Z" fill="#C15646"/>
<path d="M47.7035 31.0039L47.3886 33.491L47.0659 35.9768V35.969C47.058 36.2981 47.1482 36.622 47.3251 36.8996C47.4126 37.0335 47.5237 37.1503 47.653 37.2444C47.7837 37.3367 47.9319 37.4015 48.0884 37.4349C48.4131 37.4983 48.7495 37.4565 49.0488 37.3156C49.201 37.2455 49.3431 37.1552 49.4713 37.0474C49.5996 36.935 49.7148 36.8084 49.8148 36.6702L49.8303 36.6793C49.7482 36.8339 49.6458 36.9769 49.5258 37.1044C49.4006 37.2304 49.2584 37.3382 49.1032 37.4245C48.7843 37.6018 48.4149 37.6662 48.0547 37.6073C47.8719 37.5753 47.698 37.5047 47.5444 37.4004C47.3909 37.296 47.2614 37.1602 47.1644 37.002C46.9734 36.6912 46.8829 36.3292 46.9052 35.9652V35.9574L47.294 33.4806L47.6828 31.0039H47.7035Z" fill="#E58568"/>
<path opacity="0.6" d="M57.2061 36.3912C58.5403 36.3912 59.6219 36.0581 59.6219 35.6472C59.6219 35.2364 58.5403 34.9033 57.2061 34.9033C55.8719 34.9033 54.7903 35.2364 54.7903 35.6472C54.7903 36.0581 55.8719 36.3912 57.2061 36.3912Z" fill="#F59B9E"/>
<path opacity="0.6" d="M40.1075 36.7623C41.4417 36.7623 42.5233 36.4292 42.5233 36.0183C42.5233 35.6075 41.4417 35.2744 40.1075 35.2744C38.7733 35.2744 37.6917 35.6075 37.6917 36.0183C37.6917 36.4292 38.7733 36.7623 40.1075 36.7623Z" fill="#F59B9E"/>
<path d="M39.0212 27.7185C39.936 26.7321 41.1814 26.1164 42.5206 25.9883C42.8688 25.9448 43.2194 25.9223 43.5704 25.9209C43.9259 25.9241 44.2761 26.0084 44.5942 26.1671C44.913 26.3232 45.2024 26.5332 45.4496 26.788C45.7094 27.0487 45.9031 27.3677 46.0147 27.7185L45.9188 27.8481C45.5859 27.8485 45.2532 27.8312 44.9221 27.7963C44.6227 27.7665 44.3467 27.7315 44.0797 27.6913C43.8178 27.6519 43.5607 27.5854 43.3124 27.493C43.0589 27.3884 42.7933 27.3156 42.5219 27.2766C42.246 27.2417 41.9678 27.2282 41.6898 27.2364C41.4035 27.2406 41.118 27.2666 40.8357 27.3141C40.2427 27.4125 39.6662 27.5921 39.1223 27.8481L39.0212 27.7185Z" fill="black"/>
<path d="M57.7647 28.1863C57.2208 27.9304 56.6443 27.7507 56.0513 27.6524C55.7691 27.6042 55.4835 27.5782 55.1972 27.5746C54.9192 27.5658 54.641 27.5792 54.3651 27.6148C54.0937 27.6539 53.8281 27.7266 53.5746 27.8312C53.3262 27.923 53.0691 27.9894 52.8073 28.0295C52.5403 28.0697 52.2643 28.1047 51.9649 28.1332C51.6339 28.1692 51.3012 28.187 50.9682 28.1863L50.8723 28.0567C50.9836 27.7058 51.1774 27.3867 51.4374 27.1262C51.6849 26.8715 51.9742 26.6611 52.2928 26.5041C52.6114 26.3465 52.9612 26.2623 53.3167 26.2578C53.6676 26.2603 54.0181 26.2832 54.3664 26.3265C55.7056 26.4546 56.951 27.0704 57.8658 28.0567L57.7647 28.1863Z" fill="black"/>
<path d="M34.7172 32.1162C34.9129 32.098 34.5267 30.395 35.4612 28.3991C36.3464 26.5095 37.562 26.1803 38.6689 24.1066C39.1569 23.1838 39.4888 22.1867 39.6513 21.1555C42.7864 23.8591 45.2904 24.3477 47.0271 24.266C51.5023 24.0664 54.4482 19.9541 57.5172 21.3162C57.7764 21.429 58.7861 21.8787 59.3213 22.9557C59.9862 24.2945 59.4665 25.7072 59.3213 26.0662C59.944 26.9453 60.4218 27.9184 60.7366 28.9486C61.2965 30.7955 61.0891 32.111 61.2874 32.1304C61.5933 32.1602 61.8058 28.9849 63.0902 24.2621C63.5399 22.6058 63.7979 21.8269 63.9106 20.4932C64.0273 19.1 64.2437 16.5261 62.9269 14.0999C61.0814 10.7094 57.3734 9.72053 56.5348 9.51835C56.807 8.69925 57.08 7.87842 57.3539 7.05586L49.8135 5.42155C46.3077 4.14754 42.5674 4.85389 40.3071 7.22435C38.5108 9.1075 38.2334 11.43 38.1764 12.3048C37.9003 12.2854 35.4676 12.1545 33.7517 14.1076C31.9113 16.202 32.5477 18.811 32.6034 19.0248C33.9266 29.5733 34.4749 32.1421 34.7172 32.1162Z" fill="black"/>
<path d="M61.8523 33.0496C61.8678 32.7461 61.9529 32.4503 62.1011 32.1851C62.1758 32.0505 62.2649 31.9245 62.3668 31.8092C62.4709 31.695 62.5859 31.5913 62.7103 31.4995C62.9625 31.3207 63.251 31.1999 63.5553 31.1457C63.8546 31.0905 64.1626 31.106 64.4548 31.191C64.1621 31.1793 63.8694 31.2117 63.5864 31.2869C63.0304 31.4376 62.5469 31.783 62.2243 32.2603C62.0622 32.5037 61.9369 32.7696 61.8523 33.0496Z" fill="#D2664F"/>
<path d="M47.5 3.88813C57.5614 3.89464 67.3112 7.37877 75.0981 13.7503C82.8849 20.1219 88.2299 28.9892 90.2279 38.8502C92.2258 48.7113 90.7537 58.9598 86.061 67.8598C81.3684 76.7598 73.7436 83.7642 64.4782 87.6864C53.8201 92.1888 41.8099 92.2729 31.0899 87.9201C20.3698 83.5673 11.8179 75.1343 7.31552 64.4762C2.81314 53.8181 2.72909 41.808 7.08184 31.0879C11.4346 20.3678 19.8676 11.816 30.5257 7.31357C35.8957 5.04122 41.6691 3.87614 47.5 3.88813ZM47.5 0C21.2668 0 0 21.2668 0 47.5C0 73.7332 21.2668 95 47.5 95C73.7332 95 95 73.7332 95 47.5C95 21.2668 73.7332 0 47.5 0Z" fill="#F83C4A"/>
</svg>
