<svg width="29" height="37" viewBox="0 0 29 37" fill="none" xmlns="http://www.w3.org/2000/svg">
<path d="M22.0833 8.66667C22.0833 10.7 21.2756 12.65 19.8378 14.0878C18.4 15.5256 16.45 16.3333 14.4167 16.3333C12.3833 16.3333 10.4333 15.5256 8.99551 14.0878C7.55774 12.65 6.75 10.7 6.75 8.66667C6.75 6.63334 7.55774 4.68329 8.99551 3.24551C10.4333 1.80774 12.3833 1 14.4167 1C16.45 1 18.4 1.80774 19.8378 3.24551C21.2756 4.68329 22.0833 6.63334 22.0833 8.66667V8.66667ZM14.4167 22.0833C10.8583 22.0833 7.44576 23.4969 4.92965 26.013C2.41354 28.5291 1 31.9417 1 35.5H27.8333C27.8333 31.9417 26.4198 28.5291 23.9037 26.013C21.3876 23.4969 17.975 22.0833 14.4167 22.0833V22.0833Z" stroke="#1E1E1E" stroke-width="2" stroke-linecap="round" stroke-linejoin="round"/>
</svg>
