<svg width="36" height="36" viewBox="0 0 36 36" fill="none" xmlns="http://www.w3.org/2000/svg">
<path d="M22.5008 4.5C23.6942 4.5 24.8388 4.97411 25.6827 5.81802C26.5266 6.66193 27.0008 7.80653 27.0008 9C27.7408 8.99984 28.4694 9.18218 29.1221 9.53087C29.7748 9.87956 30.3315 10.3838 30.7427 10.999C31.154 11.6142 31.4072 12.3214 31.4799 13.0578C31.5527 13.7942 31.4426 14.5372 31.1596 15.221C30.8766 15.9047 30.4294 16.5081 29.8575 16.9777C29.2856 17.4474 28.6067 17.7687 27.8809 17.9133C27.1552 18.0579 26.405 18.0212 25.6968 17.8066C24.9885 17.592 24.3442 17.2061 23.8208 16.683L16.6838 23.82C17.1988 24.3355 17.581 24.9684 17.7974 25.6643C18.0139 26.3601 18.058 27.0982 17.9262 27.8149C17.7943 28.5316 17.4904 29.2056 17.0405 29.7788C16.5906 30.3521 16.0082 30.8076 15.3433 31.106C14.6785 31.4044 13.9511 31.537 13.2238 31.4921C12.4964 31.4473 11.7908 31.2265 11.1676 30.8488C10.5445 30.471 10.0223 29.9475 9.64621 29.3233C9.27007 28.6992 9.05114 27.993 9.00825 27.2655L9.00075 27L8.73675 26.9925C8.00901 26.9499 7.30251 26.731 6.67806 26.3549C6.0536 25.9787 5.52988 25.4565 5.15195 24.8331C4.77402 24.2097 4.5532 23.5039 4.50848 22.7763C4.46376 22.0486 4.59648 21.321 4.89523 20.6561C5.19398 19.9911 5.64981 19.4087 6.2235 18.9589C6.79719 18.5091 7.47157 18.2054 8.18862 18.074C8.90567 17.9425 9.64392 17.9872 10.3398 18.2043C11.0358 18.4214 11.6686 18.8042 12.1838 19.32L19.3208 12.183C18.6912 11.5538 18.2623 10.7521 18.0884 9.8792C17.9145 9.0063 18.0034 8.10143 18.3438 7.27903C18.6842 6.45664 19.2608 5.75365 20.0007 5.25899C20.7407 4.76432 21.6107 4.50019 22.5008 4.5V4.5Z" stroke="#F83C4A" stroke-width="2.75" stroke-linecap="round" stroke-linejoin="round"/>
</svg>
