<svg width="44" height="44" viewBox="0 0 44 44" fill="none" xmlns="http://www.w3.org/2000/svg">
<path d="M22 18.3333C22 15.4159 20.8411 12.618 18.7782 10.5551C16.7153 8.49224 13.9174 7.33331 11 7.33331H5.5V11C5.5 13.9174 6.65893 16.7153 8.72183 18.7782C10.7847 20.8411 13.5826 22 16.5 22H22" stroke="#F83C4A" stroke-width="2.75" stroke-linecap="round" stroke-linejoin="round"/>
<path d="M22 25.6667C22 22.7493 23.1589 19.9514 25.2218 17.8885C27.2847 15.8256 30.0826 14.6667 33 14.6667H38.5V16.5C38.5 19.4174 37.3411 22.2153 35.2782 24.2782C33.2153 26.3411 30.4174 27.5 27.5 27.5H22" stroke="#F83C4A" stroke-width="2.75" stroke-linecap="round" stroke-linejoin="round"/>
<path d="M22 36.6666V18.3333" stroke="#F83C4A" stroke-width="2.75" stroke-linecap="round" stroke-linejoin="round"/>
</svg>
