<svg width="44" height="44" viewBox="0 0 44 44" fill="none" xmlns="http://www.w3.org/2000/svg">
<path d="M27.5 18.3332L35.8472 14.1606C36.1266 14.0209 36.4371 13.955 36.7492 13.9691C37.0612 13.9831 37.3645 14.0767 37.6303 14.2409C37.896 14.4051 38.1154 14.6345 38.2676 14.9072C38.4199 15.18 38.4998 15.4872 38.5 15.7996V28.2002C38.4998 28.5126 38.4199 28.8198 38.2676 29.0926C38.1154 29.3654 37.896 29.5947 37.6303 29.7589C37.3645 29.9231 37.0612 30.0167 36.7492 30.0307C36.4371 30.0448 36.1266 29.9789 35.8472 29.8392L27.5 25.6666V18.3332Z" stroke="#F83C4A" stroke-width="2.75" stroke-linecap="round" stroke-linejoin="round"/>
<path d="M23.8333 11H9.16667C7.14162 11 5.5 12.6416 5.5 14.6667V29.3333C5.5 31.3584 7.14162 33 9.16667 33H23.8333C25.8584 33 27.5 31.3584 27.5 29.3333V14.6667C27.5 12.6416 25.8584 11 23.8333 11Z" stroke="#F83C4A" stroke-width="2.75" stroke-linecap="round" stroke-linejoin="round"/>
<path d="M12.834 22H20.1673" stroke="#F83C4A" stroke-width="2.75" stroke-linecap="round" stroke-linejoin="round"/>
</svg>
