<svg width="43" height="41" viewBox="0 0 43 41" fill="none" xmlns="http://www.w3.org/2000/svg">
<g clip-path="url(#clip0_439_828)">
<path d="M28.6675 8.54169L28.6675 23.0625C28.6516 23.8559 28.8678 24.6379 29.2919 25.3206C29.716 26.0034 30.3313 26.56 31.0686 26.928C31.806 27.2961 32.6363 27.4609 33.4664 27.4041C34.2965 27.3473 35.0936 27.0711 35.7683 26.6065C36.443 26.1419 36.9686 25.5072 37.2862 24.7737C37.6037 24.0402 37.7006 23.2368 37.5661 22.4537C37.4315 21.6706 37.0708 20.9387 36.5243 20.3402C35.9779 19.7416 35.2674 19.3001 34.4725 19.065" stroke="#F83C4A" stroke-width="2.75" stroke-linecap="round" stroke-linejoin="round"/>
<path d="M21.4992 5.125L21.4992 31.6042C21.5151 32.3976 21.2989 33.1795 20.8748 33.8623C20.4506 34.5451 19.8354 35.1017 19.098 35.4697C18.3607 35.8377 17.5304 36.0025 16.7003 35.9458C15.8701 35.889 15.073 35.6128 14.3983 35.1481C13.7236 34.6835 13.198 34.0489 12.8805 33.3154C12.563 32.5818 12.466 31.7785 12.6006 30.9954C12.7352 30.2122 13.0959 29.4804 13.6423 28.8818C14.1887 28.2833 14.8993 27.8417 15.6942 27.6067" stroke="#F83C4A" stroke-width="2.75" stroke-linecap="round" stroke-linejoin="round"/>
<path d="M14.3332 6.83331L14.3332 16.2291C14.3491 17.0226 14.1329 17.8045 13.7087 18.4873C13.2846 19.1701 12.6694 19.7267 11.932 20.0947C11.1947 20.4627 10.3644 20.6275 9.53424 20.5707C8.70411 20.5139 7.907 20.2377 7.23231 19.7731C6.55761 19.3085 6.03202 18.6739 5.71448 17.9403C5.39694 17.2068 5.30002 16.4034 5.43458 15.6203C5.56914 14.8372 5.92987 14.1053 6.4763 13.5068C7.02273 12.9082 7.73325 12.4667 8.52816 12.2316" stroke="#F83C4A" stroke-width="2.75" stroke-linecap="round" stroke-linejoin="round"/>
</g>
<defs>
<clipPath id="clip0_439_828">
<rect width="41" height="43" fill="white" transform="translate(43) rotate(90)"/>
</clipPath>
</defs>
</svg>
