<svg width="34" height="43" viewBox="0 0 34 43" fill="none" xmlns="http://www.w3.org/2000/svg">
<path d="M26.1429 10.1111C26.1429 12.5275 25.1796 14.845 23.465 16.5536C21.7504 18.2623 19.4248 19.2222 17 19.2222C14.5752 19.2222 12.2496 18.2623 10.535 16.5536C8.82041 14.845 7.85714 12.5275 7.85714 10.1111C7.85714 7.69469 8.82041 5.37725 10.535 3.66858C12.2496 1.95992 14.5752 1 17 1C19.4248 1 21.7504 1.95992 23.465 3.66858C25.1796 5.37725 26.1429 7.69469 26.1429 10.1111V10.1111ZM17 26.0556C12.7565 26.0556 8.68687 27.7354 5.68629 30.7256C2.68571 33.7157 1 37.7713 1 42H33C33 37.7713 31.3143 33.7157 28.3137 30.7256C25.3131 27.7354 21.2435 26.0556 17 26.0556V26.0556Z" stroke="#1E1E1E" stroke-width="2" stroke-linecap="round" stroke-linejoin="round"/>
</svg>
