<svg width="44" height="44" viewBox="0 0 44 44" fill="none" xmlns="http://www.w3.org/2000/svg">
<path d="M29.3333 18.3334C30.3459 18.3334 31.1667 17.5125 31.1667 16.5C31.1667 15.4875 30.3459 14.6667 29.3333 14.6667C28.3208 14.6667 27.5 15.4875 27.5 16.5C27.5 17.5125 28.3208 18.3334 29.3333 18.3334Z" stroke="#F83C4A" stroke-width="2.75" stroke-linecap="round" stroke-linejoin="round"/>
<path d="M11 20.1667L18.3333 16.5L24.75 22L22 25.6667" stroke="#F83C4A" stroke-width="2.75" stroke-linecap="round" stroke-linejoin="round"/>
<path d="M5.5 30.7083C6.0707 30.9921 6.69624 31.1485 7.33333 31.1667C8.04741 31.1816 8.75439 31.0225 9.39322 30.7031C10.0321 30.3837 10.5835 29.9136 11 29.3333C11.4165 28.7531 11.9679 28.283 12.6068 27.9635C13.2456 27.6441 13.9526 27.485 14.6667 27.5C15.3807 27.485 16.0877 27.6441 16.7266 27.9635C17.3654 28.283 17.9169 28.7531 18.3333 29.3333C18.7498 29.9136 19.3013 30.3837 19.9401 30.7031C20.5789 31.0225 21.2859 31.1816 22 31.1667C22.7141 31.1816 23.4211 31.0225 24.0599 30.7031C24.6987 30.3837 25.2502 29.9136 25.6667 29.3333C26.0831 28.7531 26.6346 28.283 27.2734 27.9635C27.9123 27.6441 28.6193 27.485 29.3333 27.5C30.0474 27.485 30.7544 27.6441 31.3932 27.9635C32.0321 28.283 32.5835 28.7531 33 29.3333C33.4165 29.9136 33.968 30.3837 34.6068 30.7031C35.2456 31.0225 35.9526 31.1816 36.6667 31.1667C37.3038 31.1485 37.9293 30.9921 38.5 30.7083" stroke="#F83C4A" stroke-width="2.75" stroke-linecap="round" stroke-linejoin="round"/>
</svg>
