<svg width="121" height="121" viewBox="0 0 121 121" fill="none" xmlns="http://www.w3.org/2000/svg">
<path d="M97.9027 96.1753C87.1696 104.44 73.9895 108.893 60.4436 108.834C46.8976 108.774 33.7574 104.204 23.0977 95.845L39.1698 88.311C39.9352 87.9512 40.6698 87.5292 41.3662 87.0493C41.5776 86.904 41.789 86.752 41.9905 86.5935C43.7397 85.2551 45.1795 83.555 46.2116 81.6093C46.992 80.1144 47.5103 78.4967 47.7442 76.8267C47.9055 75.743 47.9872 74.649 47.9886 73.5535C47.9886 71.6642 47.8862 69.7749 47.8664 67.8823C47.8532 66.8364 47.8422 65.7893 47.8334 64.7412L48.494 65.0715L50.2115 65.96L51.0075 66.0954L60.2161 67.661L70.4949 69.4116L70.8054 79.981L70.9077 83.4359L70.9573 85.1138V85.2162L74.9539 86.8412L97.9027 96.1753Z" fill="#F2A196"/>
<path d="M70.9173 84.4333C69.7821 84.6286 68.6142 84.4477 67.5913 83.9181L47.8925 67.8063C47.8694 67.0598 47.8496 67.8426 47.8397 67.0962C47.8265 66.0502 47.8154 65.0032 47.8066 63.9551L48.4672 64.2854L50.1848 65.1739L50.9808 65.3093L60.1894 66.8749L70.4681 68.6254L70.7786 79.1949L70.881 82.6497L70.9305 84.3276V84.4366L70.9173 84.4333Z" fill="#E88870"/>
<path d="M97.9027 96.1746C87.1696 104.439 73.9895 108.893 60.4436 108.833C46.8976 108.773 33.7574 104.203 23.0977 95.8443L39.1698 88.3103C39.9352 87.9505 40.6698 87.5285 41.3662 87.0486C41.5776 86.9032 41.789 86.7513 41.9905 86.5928C49.7689 92.1285 60.3846 95.6197 69.5668 91.4877C71.7533 90.4968 73.7615 88.8982 74.9505 86.8438L97.9027 96.1746Z" fill="#FF2609"/>
<path d="M91.9903 30.0233C91.9606 30.2182 91.9242 30.4097 91.8813 30.6013C91.6522 31.5833 91.284 32.5276 90.788 33.4055L90.7616 33.4518C90.5733 33.7821 90.3719 34.1123 90.1539 34.4426C89.5755 35.2906 88.9445 36.1014 88.2646 36.8703L87.8583 37.3228C87.5842 37.63 87.3067 37.9305 87.0293 38.2278C87.2386 38.1829 87.4537 38.1707 87.6667 38.1915C87.7459 38.198 87.8244 38.2112 87.9013 38.2311C88.9549 38.4491 89.8566 39.4301 90.1373 40.5432C90.1539 40.6158 90.1704 40.6918 90.1836 40.7645C90.4445 42.2442 89.8533 43.7371 89.1233 45.0583C87.8451 47.3968 86.0021 48.9525 84.3803 50.9838C83.1648 52.4965 82.491 54.2867 81.1666 55.7334L81.0675 55.8424L80.9882 55.9217C77.4871 59.5285 72.0141 60.3839 67.4461 61.9429C65.7947 62.511 47.8861 67.5976 47.8861 68.7074C47.8861 68.4663 46.1322 66.7256 43.9226 64.6084C35.9955 57.081 33.3895 45.4514 38.1061 35.4765C43.1761 24.7419 54.6902 17.0824 65.6559 13.4029C69.0844 12.2535 72.9753 11.4806 76.2253 13.0726C79.4754 14.6646 81.0939 19.6025 78.3987 22.0137C80.0939 20.7311 82.2023 20.1184 84.3209 20.2928C86.2776 20.4154 88.123 21.2454 89.5131 22.628C90.2897 23.4065 90.9147 24.3227 91.3561 25.3298C91.5378 25.7477 91.689 26.1782 91.8086 26.618C92.1061 27.728 92.1679 28.8879 91.9903 30.0233Z" fill="#F2D4CF"/>
<path d="M91.9905 30.0233C91.9607 30.2182 91.9244 30.4097 91.8815 30.6013C91.6523 31.5833 91.2842 32.5276 90.7882 33.4055L90.7618 33.4517C90.5735 33.782 90.372 34.1123 90.154 34.4426C89.5756 35.2906 88.9446 36.1014 88.2648 36.8703L87.8585 37.3228C87.5843 37.63 87.3069 37.9305 87.0294 38.2278C87.2388 38.1829 87.4538 38.1707 87.6669 38.1915C87.7461 38.198 87.8245 38.2112 87.9014 38.2311C88.9551 38.4491 89.8568 39.4301 90.1375 40.5432C90.154 40.6158 90.1705 40.6918 90.1838 40.7645C90.4447 42.2442 89.8535 43.7371 89.1235 45.0583C87.8453 47.3968 86.0022 48.9525 84.3805 50.9838C83.165 52.4965 82.4912 54.2867 81.1667 55.7334L81.0676 55.8424L80.9884 55.9217C79.6603 54.1347 78.8141 52.0361 78.531 49.8277C77.9662 45.2565 78.3097 40.2756 78.1544 35.6482C78.1016 34.0331 78.0058 32.1075 78.5244 30.5749C78.6661 30.1955 78.856 29.8359 79.0892 29.5047C79.697 28.5242 80.39 27.5991 81.1601 26.7402C82.0334 25.8104 83.1361 25.1269 84.3574 24.7584C85.0167 24.571 85.6925 24.4471 86.3755 24.3885C87.1057 24.3169 87.8418 24.3313 88.5686 24.4314C89.5382 24.5698 90.4754 24.8796 91.3365 25.3463C91.5181 25.7642 91.6694 26.1948 91.789 26.6345C92.0907 27.7378 92.1593 28.892 91.9905 30.0233Z" fill="#DAAEA8"/>
<path d="M44.5833 61.104C47.6843 61.104 50.1983 58.5901 50.1983 55.489C50.1983 52.3879 47.6843 49.874 44.5833 49.874C41.4822 49.874 38.9683 52.3879 38.9683 55.489C38.9683 58.5901 41.4822 61.104 44.5833 61.104Z" fill="#F2A196"/>
<path d="M46.3669 60.5161C49.1433 60.5161 51.394 58.2654 51.394 55.489C51.394 52.7126 49.1433 50.4619 46.3669 50.4619C43.5905 50.4619 41.3398 52.7126 41.3398 55.489C41.3398 58.2654 43.5905 60.5161 46.3669 60.5161Z" fill="#E88870"/>
<path d="M46.4395 50.2046L47.8927 69.0314L69.8375 81.8534C71.3555 82.4204 73.0302 82.4024 74.5357 81.8029C76.0412 81.2034 77.2698 80.0652 77.9826 78.6099C81.1402 72.1427 86.2069 61.9333 85.5397 58.1317C84.5488 52.5167 81.9064 50.5349 81.9064 50.5349L83.0063 43.9488C83.4192 41.4683 83.951 38.8788 83.3366 36.3851C82.6331 33.528 80.473 32.3059 78.696 30.1689C74.019 36.1935 66.3298 39.5988 59.6149 43.0504C56.1501 44.8472 46.4395 50.2046 46.4395 50.2046Z" fill="#F2A196"/>
<path d="M71.0562 48.5859C71.0298 48.6982 75.4689 60.5162 75.4689 60.5162L69.5435 60.8068" stroke="#00214E" stroke-miterlimit="10"/>
<path d="M57.0254 46.2978C60.0832 45.6664 63.2282 45.5781 66.3166 46.0369" stroke="#00214E" stroke-miterlimit="10"/>
<path d="M76.5293 46.3341C78.4174 45.8978 80.3627 45.7629 82.2929 45.9344" stroke="#00214E" stroke-miterlimit="10"/>
<path d="M63.4725 64.1102C63.5176 64.0388 63.577 63.9775 63.647 63.93C63.717 63.8826 63.796 63.8501 63.879 63.8346C63.9621 63.8191 64.0475 63.8209 64.1299 63.84C64.2122 63.859 64.2898 63.8948 64.3576 63.9451C65.0447 64.4273 66.2998 65.4512 68.0834 65.8046C70.5143 66.2902 72.6216 65.3158 73.127 65.9434C73.411 66.2968 73.0642 66.7295 72.4003 67.2645C71.705 67.7852 70.9125 68.1612 70.0695 68.3706C69.2266 68.5799 68.3502 68.6182 67.4921 68.4833C65.1536 68.044 63.3965 65.3356 63.3965 64.3745C63.3992 64.2814 63.4254 64.1906 63.4725 64.1102Z" fill="white"/>
<path d="M62.6006 50.0859C64.6154 50.1025 64.6154 53.1808 62.6006 53.1973H62.5082C60.4934 53.1808 60.4934 50.1025 62.5082 50.0859H62.6006Z" fill="#00214E"/>
<path d="M79.201 49.874C81.0705 49.874 81.0705 52.7476 79.201 52.7608H79.1184C77.2457 52.7608 77.2457 49.8872 79.1184 49.874H79.201Z" fill="#00214E"/>
</svg>
