<svg width="22" height="24" viewBox="0 0 22 24" fill="none" xmlns="http://www.w3.org/2000/svg">
<mask id="path-1-inside-1_912_1258" fill="white">
<path d="M12.3861 17.6362H10.8294L9.33423 15.2044L7.83905 17.6362H6.37915L8.51187 14.3205L6.51555 11.207H8.01955L9.40478 13.5201L10.7635 11.207H12.2323L10.2138 14.3953L12.3861 17.6362Z"/>
</mask>
<path d="M12.3861 17.6362H10.8294L9.33423 15.2044L7.83905 17.6362H6.37915L8.51187 14.3205L6.51555 11.207H8.01955L9.40478 13.5201L10.7635 11.207H12.2323L10.2138 14.3953L12.3861 17.6362Z" fill="white"/>
<path d="M12.3861 17.6362V22.6362H21.7569L16.5394 14.8522L12.3861 17.6362ZM10.8294 17.6362L6.57009 20.255L8.03414 22.6362H10.8294V17.6362ZM9.33423 15.2044L13.5935 12.5855L9.33423 5.65807L5.07491 12.5855L9.33423 15.2044ZM7.83905 17.6362V22.6362H10.6343L12.0984 20.255L7.83905 17.6362ZM6.37915 17.6362L2.17395 14.9313L-2.78198 22.6362H6.37915V17.6362ZM8.51187 14.3205L12.7171 17.0253L14.4542 14.3247L12.7209 11.6216L8.51187 14.3205ZM6.51555 11.207V6.20703H-2.62998L2.30648 13.9059L6.51555 11.207ZM8.01955 11.207L12.3091 8.63808L10.8532 6.20703H8.01955V11.207ZM9.40478 13.5201L5.11519 16.089L9.44624 23.3209L13.7159 16.0526L9.40478 13.5201ZM10.7635 11.207V6.20703H7.90186L6.45238 8.67447L10.7635 11.207ZM12.2323 11.207L16.4568 13.8815L21.3154 6.20703H12.2323V11.207ZM10.2138 14.3953L5.98924 11.7208L4.24671 14.4733L6.06053 17.1792L10.2138 14.3953ZM12.3861 12.6362H10.8294V22.6362H12.3861V12.6362ZM15.0887 15.0173L13.5935 12.5855L5.07491 17.8232L6.57009 20.255L15.0887 15.0173ZM5.07491 12.5855L3.57973 15.0173L12.0984 20.255L13.5935 17.8232L5.07491 12.5855ZM7.83905 12.6362H6.37915V22.6362H7.83905V12.6362ZM10.5843 20.341L12.7171 17.0253L4.30668 11.6156L2.17395 14.9313L10.5843 20.341ZM12.7209 11.6216L10.7246 8.50819L2.30648 13.9059L4.3028 17.0193L12.7209 11.6216ZM6.51555 16.207H8.01955V6.20703H6.51555V16.207ZM3.72997 13.776L5.11519 16.089L13.6944 10.9511L12.3091 8.63808L3.72997 13.776ZM13.7159 16.0526L15.0747 13.7396L6.45238 8.67447L5.09361 10.9875L13.7159 16.0526ZM10.7635 16.207H12.2323V6.20703H10.7635V16.207ZM8.0077 8.53252L5.98924 11.7208L14.4384 17.0698L16.4568 13.8815L8.0077 8.53252ZM6.06053 17.1792L8.23284 20.4201L16.5394 14.8522L14.3671 11.6114L6.06053 17.1792Z" fill="white" mask="url(#path-1-inside-1_912_1258)"/>
<path d="M16.8863 14.6348C14.3993 14.6348 12.3833 16.6508 12.3833 19.1377C12.3833 21.6247 14.3993 23.6407 16.8863 23.6407C19.3732 23.6407 21.3893 21.6247 21.3893 19.1377C21.3893 16.6508 19.3732 14.6348 16.8863 14.6348ZM18.928 17.8221L18.9068 17.8551L17.3623 20.0012C17.2595 20.1637 17.0793 20.2635 16.8863 20.2635C16.6932 20.2635 16.5131 20.1637 16.4105 20.0014L14.8446 17.8223C14.7453 17.6486 14.7462 17.4334 14.8464 17.2606C14.9468 17.0876 15.1335 16.9803 15.3335 16.9803H16.1358V15.7605C16.1358 15.4502 16.3883 15.1976 16.6987 15.1976H17.0739C17.3842 15.1976 17.6368 15.4502 17.6368 15.7605V16.9801H18.4391C18.6389 16.9801 18.8257 17.0874 18.9261 17.2604C19.0263 17.4332 19.0273 17.6486 18.928 17.8221Z" fill="white"/>
<path d="M13.134 23.2559L13.1243 23.2656H13.134V23.2559Z" fill="#FF9A30"/>
<path d="M18.7627 14.0723V14.0625L18.7529 14.0723H18.7627Z" fill="#FF9A30"/>
<mask id="path-6-inside-2_912_1258" fill="white">
<path d="M18.2129 7.9258L10.8366 0.549551C10.4824 0.195317 10.0111 0 9.5101 0H1.87624C0.841681 0 0 0.841681 0 1.87624V21.3891C0 22.4237 0.841681 23.2654 1.87624 23.2654H13.1243L12.3738 22.5149H1.87624C1.25539 22.5149 0.750496 22.01 0.750496 21.3891V1.87624C0.750496 1.25539 1.25539 0.750496 1.87624 0.750496H9.5101C9.81086 0.750496 10.0934 0.867573 10.306 1.08015L17.6823 8.4564C17.8916 8.66598 18.0119 8.95604 18.0119 9.2523V13.3119L18.7624 14.0624V9.2523C18.7624 8.75135 18.5673 8.28022 18.2129 7.9258Z"/>
</mask>
<path d="M18.2129 7.9258L10.8366 0.549551C10.4824 0.195317 10.0111 0 9.5101 0H1.87624C0.841681 0 0 0.841681 0 1.87624V21.3891C0 22.4237 0.841681 23.2654 1.87624 23.2654H13.1243L12.3738 22.5149H1.87624C1.25539 22.5149 0.750496 22.01 0.750496 21.3891V1.87624C0.750496 1.25539 1.25539 0.750496 1.87624 0.750496H9.5101C9.81086 0.750496 10.0934 0.867573 10.306 1.08015L17.6823 8.4564C17.8916 8.66598 18.0119 8.95604 18.0119 9.2523V13.3119L18.7624 14.0624V9.2523C18.7624 8.75135 18.5673 8.28022 18.2129 7.9258Z" fill="white"/>
<path d="M18.2129 7.9258L12.556 13.5827L18.2129 7.9258ZM10.8366 0.549551L16.4935 -5.1073L10.8366 0.549551ZM13.1243 23.2654V31.2654H32.438L18.7812 17.6085L13.1243 23.2654ZM12.3738 22.5149L18.0307 16.858L15.6875 14.5149H12.3738V22.5149ZM10.306 1.08015L15.9629 -4.5767V-4.5767L10.306 1.08015ZM17.6823 8.4564L23.3416 2.80208L23.3391 2.79955L17.6823 8.4564ZM18.0119 13.3119H10.0119V16.6256L12.3551 18.9688L18.0119 13.3119ZM18.7624 14.0624L13.1055 19.7193L26.7624 33.3761V14.0624H18.7624ZM23.8697 2.26895L16.4935 -5.1073L5.17975 6.2064L12.556 13.5827L23.8697 2.26895ZM16.4935 -5.1073C14.6397 -6.9611 12.1338 -8 9.5101 -8V8C7.88829 8 6.32508 7.35174 5.17975 6.20641L16.4935 -5.1073ZM9.5101 -8H1.87624V8H9.5101V-8ZM1.87624 -8C-3.5766 -8 -8 -3.5766 -8 1.87624H8C8 5.25996 5.25996 8 1.87624 8V-8ZM-8 1.87624V21.3891H8V1.87624H-8ZM-8 21.3891C-8 26.842 -3.5766 31.2654 1.87624 31.2654V15.2654C5.25996 15.2654 8 18.0054 8 21.3891H-8ZM1.87624 31.2654H13.1243V15.2654H1.87624V31.2654ZM18.7812 17.6085L18.0307 16.858L6.71695 28.1717L7.46745 28.9222L18.7812 17.6085ZM12.3738 14.5149H1.87624V30.5149H12.3738V14.5149ZM1.87624 14.5149C5.67367 14.5149 8.7505 17.5917 8.7505 21.3891H-7.2495C-7.2495 26.4283 -3.16288 30.5149 1.87624 30.5149V14.5149ZM8.7505 21.3891V1.87624H-7.2495V21.3891H8.7505ZM8.7505 1.87624C8.7505 5.67367 5.67367 8.7505 1.87624 8.7505V-7.2495C-3.16288 -7.2495 -7.2495 -3.16289 -7.2495 1.87624H8.7505ZM1.87624 8.7505H9.5101V-7.2495H1.87624V8.7505ZM9.5101 8.7505C7.68896 8.7505 5.93674 8.0246 4.64915 6.73701L15.9629 -4.5767C14.2501 -6.28945 11.9328 -7.2495 9.5101 -7.2495V8.7505ZM4.64915 6.73701L12.0254 14.1133L23.3391 2.79955L15.9629 -4.5767L4.64915 6.73701ZM12.0229 14.1107C10.736 12.8227 10.0119 11.08 10.0119 9.2523H26.0119C26.0119 6.83205 25.0473 4.50926 23.3416 2.80208L12.0229 14.1107ZM10.0119 9.2523V13.3119H26.0119V9.2523H10.0119ZM12.3551 18.9688L13.1055 19.7193L24.4193 8.40556L23.6688 7.65507L12.3551 18.9688ZM26.7624 14.0624V9.2523H10.7624V14.0624H26.7624ZM26.7624 9.2523C26.7624 6.62918 25.7241 4.12335 23.8697 2.26895L12.556 13.5827C11.4104 12.4371 10.7624 10.8735 10.7624 9.2523H26.7624Z" fill="white" mask="url(#path-6-inside-2_912_1258)"/>
<path d="M18.7531 14.0724L18.7625 14.063L18.012 13.3125" fill="white"/>
</svg>
