<svg width="22" height="31" viewBox="0 0 22 31" fill="none" xmlns="http://www.w3.org/2000/svg">
<path d="M17.4167 3.875H8.25008C7.23756 3.875 6.41675 5.0316 6.41675 6.45833V19.375C6.41675 20.8017 7.23756 21.9583 8.25008 21.9583H17.4167C18.4293 21.9583 19.2501 20.8017 19.2501 19.375V6.45833C19.2501 5.0316 18.4293 3.875 17.4167 3.875Z" stroke="white" stroke-linecap="round" stroke-linejoin="round"/>
<path d="M15.5833 21.9587V24.542C15.5833 25.2271 15.3902 25.8842 15.0464 26.3687C14.7025 26.8532 14.2362 27.1253 13.75 27.1253H4.58333C4.0971 27.1253 3.63079 26.8532 3.28697 26.3687C2.94315 25.8842 2.75 25.2271 2.75 24.542V11.6253C2.75 10.9402 2.94315 10.2831 3.28697 9.79863C3.63079 9.31416 4.0971 9.04199 4.58333 9.04199H6.41667" stroke="white" stroke-linecap="round" stroke-linejoin="round"/>
</svg>
