<svg width="67" height="67" viewBox="0 0 67 67" fill="none" xmlns="http://www.w3.org/2000/svg">
<path d="M25.1249 30.7083C31.2921 30.7083 36.2916 25.7088 36.2916 19.5417C36.2916 13.3745 31.2921 8.375 25.1249 8.375C18.9577 8.375 13.9583 13.3745 13.9583 19.5417C13.9583 25.7088 18.9577 30.7083 25.1249 30.7083Z" stroke="white" stroke-width="5" stroke-linecap="round" stroke-linejoin="round"/>
<path d="M8.375 58.625V53.0417C8.375 50.0801 9.55148 47.2398 11.6456 45.1456C13.7398 43.0515 16.5801 41.875 19.5417 41.875H30.7083C33.6699 41.875 36.5102 43.0515 38.6044 45.1456C40.6985 47.2398 41.875 50.0801 41.875 53.0417V58.625" stroke="white" stroke-width="5" stroke-linecap="round" stroke-linejoin="round"/>
<path d="M44.6667 8.73828C47.0687 9.35329 49.1977 10.7502 50.7181 12.7089C52.2384 14.6676 53.0636 17.0765 53.0636 19.556C53.0636 22.0355 52.2384 24.4444 50.7181 26.4031C49.1977 28.3617 47.0687 29.7587 44.6667 30.3737" stroke="white" stroke-width="5" stroke-linecap="round" stroke-linejoin="round"/>
<path d="M58.625 58.6252V53.0419C58.6108 50.5773 57.7817 48.1866 56.2668 46.2425C54.7519 44.2984 52.6364 42.9101 50.25 42.2939" stroke="white" stroke-width="5" stroke-linecap="round" stroke-linejoin="round"/>
</svg>
