<svg width="26" height="26" viewBox="0 0 26 26" fill="none" xmlns="http://www.w3.org/2000/svg">
<path d="M19.3395 16.315C19.3253 16.2114 19.242 16.0814 19.1527 15.9941C18.8967 15.7422 18.3341 15.6102 17.4769 15.598C16.8959 15.5919 16.1972 15.6427 15.4619 15.7462C15.1328 15.5573 14.7936 15.3502 14.5275 15.1003C13.8105 14.432 13.2133 13.5038 12.8395 12.482C12.8639 12.3866 12.8842 12.3033 12.9045 12.218C12.9045 12.218 13.3067 9.92672 13.2011 9.15078C13.1869 9.04516 13.1767 9.01469 13.1483 8.93141L13.1137 8.84203C13.0041 8.58812 12.7887 8.32 12.4516 8.33422L12.2525 8.32812H12.2484C11.8706 8.32812 11.5659 8.52109 11.4847 8.8075C11.2409 9.70938 11.4928 11.0602 11.9498 12.807L11.832 13.0914C11.505 13.8917 11.0947 14.6961 10.7331 15.405L10.6864 15.4964C10.3045 16.2419 9.95922 16.8756 9.64437 17.4119L9.3214 17.5825C9.29703 17.5947 8.7425 17.8892 8.6125 17.9664C7.50953 18.6266 6.77828 19.3741 6.6564 19.9672C6.61781 20.1581 6.64625 20.3998 6.84328 20.5116L7.15609 20.67C7.29219 20.737 7.43641 20.7716 7.58266 20.7716C8.36875 20.7716 9.28078 19.7925 10.5381 17.5988C11.9884 17.1275 13.6419 16.7334 15.0902 16.5181C16.1931 17.1377 17.55 17.5703 18.4072 17.5703C18.5595 17.5703 18.6916 17.5561 18.7972 17.5277C18.9617 17.483 19.0998 17.3895 19.1852 17.2636C19.3517 17.0137 19.3842 16.6684 19.3395 16.315ZM7.41203 20.1764C7.55422 19.7844 8.12297 19.0084 8.96187 18.3219C9.01469 18.2792 9.14469 18.1573 9.2625 18.0436C8.385 19.4431 7.79797 19.9997 7.41203 20.1764ZM12.3805 8.73438C12.6323 8.73438 12.7766 9.37016 12.7887 9.96734C12.8009 10.5645 12.6608 10.983 12.4881 11.2937C12.3439 10.8347 12.2748 10.1116 12.2748 9.63828C12.2748 9.63828 12.2647 8.73438 12.3805 8.73438ZM10.8977 16.8878C11.0744 16.573 11.2572 16.2398 11.4441 15.8884C11.9011 15.0252 12.1895 14.3508 12.4028 13.7962C12.8294 14.5722 13.3616 15.2323 13.9852 15.7605C14.0644 15.8255 14.1477 15.8925 14.233 15.9595C12.9634 16.2094 11.8645 16.5161 10.8977 16.8878ZM18.9069 16.8167C18.8297 16.8634 18.6083 16.8919 18.4661 16.8919C18.007 16.8919 17.4362 16.6827 16.638 16.3394C16.9447 16.317 17.227 16.3048 17.4789 16.3048C17.94 16.3048 18.0761 16.3028 18.5291 16.4186C18.98 16.5344 18.9861 16.768 18.9069 16.8167Z" fill="white"/>
<path d="M21.125 16.25C18.4326 16.25 16.25 18.4326 16.25 21.125C16.25 23.8174 18.4326 26 21.125 26C23.8174 26 26 23.8174 26 21.125C26 18.4326 23.8174 16.25 21.125 16.25ZM23.3354 19.7007L23.3125 19.7364L21.6403 22.0598C21.529 22.2357 21.334 22.3438 21.125 22.3438C20.916 22.3438 20.721 22.2357 20.6099 22.06L18.9146 19.7009C18.8071 19.5128 18.8082 19.2798 18.9166 19.0927C19.0253 18.9055 19.2274 18.7893 19.4439 18.7893H20.3125V17.4688C20.3125 17.1328 20.5859 16.8594 20.9219 16.8594H21.3281C21.6641 16.8594 21.9375 17.1328 21.9375 17.4688V18.7891H22.8061C23.0224 18.7891 23.2247 18.9053 23.3334 19.0925C23.4418 19.2796 23.4429 19.5128 23.3354 19.7007Z" fill="white"/>
<path d="M17.0638 25.584L17.0522 25.5955H17.0638V25.584Z" fill="black"/>
<path d="M23.1575 15.6424V15.6309L23.146 15.6424H23.1575Z" fill="black"/>
<path d="M22.5613 8.98686L14.5756 1.0012C14.1921 0.617703 13.6819 0.40625 13.1395 0.40625H4.875C3.75497 0.40625 2.84375 1.31747 2.84375 2.4375V23.5625C2.84375 24.6825 3.75497 25.5938 4.875 25.5938H17.0523L16.2398 24.7812H4.875C4.20286 24.7812 3.65625 24.2346 3.65625 23.5625V2.4375C3.65625 1.76536 4.20286 1.21875 4.875 1.21875H13.1395C13.4652 1.21875 13.7711 1.3455 14.0012 1.57564L21.9869 9.5613C22.2135 9.78819 22.3438 10.1022 22.3438 10.423V14.818L23.1562 15.6305V10.423C23.1562 9.88061 22.945 9.37056 22.5613 8.98686Z" fill="white"/>
<path d="M23.1461 15.641L23.1562 15.6309L22.3438 14.8184" fill="white"/>
</svg>
