<svg width="44" height="44" viewBox="0 0 44 44" fill="none" xmlns="http://www.w3.org/2000/svg">
<path d="M16.5 20.1667C20.55 20.1667 23.8333 16.8834 23.8333 12.8333C23.8333 8.78325 20.55 5.5 16.5 5.5C12.4499 5.5 9.16663 8.78325 9.16663 12.8333C9.16663 16.8834 12.4499 20.1667 16.5 20.1667Z" stroke="#F83C4A" stroke-width="2.75" stroke-linecap="round" stroke-linejoin="round"/>
<path d="M5.5 38.5V34.8333C5.5 32.8884 6.27262 31.0232 7.64788 29.6479C9.02315 28.2726 10.8884 27.5 12.8333 27.5H20.1667C22.1116 27.5 23.9769 28.2726 25.3521 29.6479C26.7274 31.0232 27.5 32.8884 27.5 34.8333V38.5" stroke="#F83C4A" stroke-width="2.75" stroke-linecap="round" stroke-linejoin="round"/>
<path d="M29.3334 5.73828C30.9108 6.14217 32.3089 7.05957 33.3074 8.34585C34.3058 9.63213 34.8478 11.2141 34.8478 12.8424C34.8478 14.4708 34.3058 16.0528 33.3074 17.339C32.3089 18.6253 30.9108 19.5427 29.3334 19.9466" stroke="#F83C4A" stroke-width="2.75" stroke-linecap="round" stroke-linejoin="round"/>
<path d="M38.5 38.5004V34.8337C38.4907 33.2152 37.9462 31.6452 36.9513 30.3685C35.9565 29.0917 34.5672 28.18 33 27.7754" stroke="#F83C4A" stroke-width="2.75" stroke-linecap="round" stroke-linejoin="round"/>
</svg>
